<?xml version="1.0" encoding="UTF-8" standalone="no"?>
<!-- Created with Inkscape (http://www.inkscape.org/) -->

<svg
   width="135.46681mm"
   height="135.4693mm"
   viewBox="0 0 135.46681 135.4693"
   version="1.1"
   id="svg966"
   inkscape:export-filename="/home/beilschmidt/Downloads/vat-favicon.png"
   inkscape:export-xdpi="5.9999938"
   inkscape:export-ydpi="5.9999938"
   inkscape:version="1.1.2 (0a00cf5339, 2022-02-04)"
   xmlns:inkscape="http://www.inkscape.org/namespaces/inkscape"
   xmlns:sodipodi="http://sodipodi.sourceforge.net/DTD/sodipodi-0.dtd"
   xmlns="http://www.w3.org/2000/svg"
   xmlns:svg="http://www.w3.org/2000/svg">
  <sodipodi:namedview
     id="namedview968"
     pagecolor="#505050"
     bordercolor="#eeeeee"
     borderopacity="1"
     inkscape:pageshadow="0"
     inkscape:pageopacity="0"
     inkscape:pagecheckerboard="0"
     inkscape:document-units="mm"
     showgrid="false"
     fit-margin-top="0"
     fit-margin-left="0"
     fit-margin-right="0"
     fit-margin-bottom="0"
     inkscape:zoom="0.64052329"
     inkscape:cx="239.6478"
     inkscape:cy="522.22926"
     inkscape:window-width="3840"
     inkscape:window-height="2123"
     inkscape:window-x="3840"
     inkscape:window-y="0"
     inkscape:window-maximized="1"
     inkscape:current-layer="layer1" />
  <defs
     id="defs963" />
  <g
     inkscape:label="Ebene 1"
     inkscape:groupmode="layer"
     id="layer1"
     transform="translate(-41.731128,-43.382175)">
    <ellipse
       cy="111.11551"
       cx="109.46453"
       fill="#f5f5f5"
       stroke="#335aa3"
       stroke-width="2.50628"
       id="ellipse2"
       rx="66.480263"
       ry="66.480194"
       style="stroke:#335aa3;stroke-opacity:1" />
    <g
       fill="#335aa3"
       id="g8"
       style="fill:#335aa3;fill-opacity:1"
       transform="matrix(0.21239678,0,0,-0.21239678,-32.374033,214.59522)">
      <path
         d="m 730,191.4 c -0.6,-7.2 1.6,-13.4 -1.4,-17.2 172.6,33.3 285.5,200.2 252.3,373 -16,78.6 -58,145 -117,190.8 1,-3 1,-6.6 1,-10 1,-19.7 19,-33.5 33,-47.7 19,-20 32,-45 38,-72 5,-21.3 5,-43.3 5,-65.3 0,-35.8 -1,-74.4 -23,-103.2 -9,-12.2 -22,-21.7 -33,-31.6 -26,-22 -50,-46.7 -74,-71.2 -6,-5.4 -11,-11.3 -12,-18.7 -1,-6 2,-12 3,-18 5,-20.8 -3,-44.3 -19,-58 -11,-8.2 -23,-12.7 -35,-19.6 -10,-6.7 -20,-17.7 -21,-31.3"
         id="path4"
         style="fill:#335aa3;fill-opacity:1" />
      <path
         d="m 387.8,335.2 h -0.2 c 62.7,-115.4 192.6,-183.8 328,-163.3 -33.6,5 -39,-3 -54.5,7 -7,4 -14,10 -19,18 -4,6 -8,14 -14,19 -6,5 -15,9 -20,16 -7,12 3,28 16,36 13,7 28,11 38,21 10,10 15,25 28,29 5,1 11,1 15,4 7,5 7,16 14,21 8,6 21,0 31,4 6,2 10,8 17,9 8,1 15,-6 22,-10 14,-6 32,3 35,18 1,5 0,10 2,16 3,11 15,17 16,28 1,5 -2,11 -3,17 -1,6 3,13 9,13 7,-1 8,-10 14,-13 5,-3 10,-1 14,2 12,7 19,20 18,34 -1,14 -11,26 -25,28 -13,2 -27,-8 -30,-21 -1,-7 0,-16 -7,-18 -7,-2 -11,9 -12,17 0,16 -2,33 -13,44 -4,5 -11,9 -14,15 -3,5 -3,11 -6,17 -2,3 -5,6 -9,8 -12,8 -26,15 -40,19 -6,1 -12,3 -16,6 -4,4 -7,11 -4,16 2,2 4,3 5,5 4,5.4 -1,13 -8,15 -6,2 -13,1.6 -19,3 -6,1.5 -13,7 -11,13.4 1,4 4,6.5 6.8,9.4 7,7.5 11,18 12,28.2 0,5 -0.6,11 1.5,15 2,5 8.6,8 12.6,5 3,-2 4,-6 7.5,-7 6.8,-1 6,10 10,15 3,4 10,3 14,0 4,-3 5,-8 7,-13 5,-12 12,-24 20,-34 1,-1 2,-2.6 3.6,-3 5,-1.2 5,7.5 5.6,13 0.5,8.4 9,14 11.6,22 3,8 0,18 -6,24 -6,6 -15,8.5 -24,9 -2.5,0 -6,0.5 -8,2 -4,3 -3.6,9 -4.5,14 -2.5,11 -16.5,19 -24,11 12,-12 6,-37.2 -11,-42.2 -2,-1 -4,-1 -6,-1 -3,0 -5,2 -7,4 -7,8 -10,19 -7.6,29 1,8 6,15 7,23 1,8 -3,17 -11,18 -10,0 -14,-14 -14,-24 -1.7,-17 -5,-34 -10,-50 -2,-5 -4,-10 -9,-12 -8,-3 -16.3,5 -18.6,13 -2.3,8.8 -1.6,18 -6,25 -4.6,8 -14,13 -14.7,22 -1,10.6 11,17 19,23 1.4,1 2.6,2 3,3.8 1,4.4 -5,7 -9.3,6.4 -4.7,-1 -10,-2.6 -13,0.3 22.5,20 57,14 86,6 17.5,-4 35,-9 49.8,-19 3.7,-2 7,-5 11.7,-6 4,0 9.5,2 9.7,7 -7,0 -12,4 -13,9 -1,4.6 3,9 6.5,11 l 1,0.6 c -50,17 -104.5,21 -159.7,11 -33,-6 -64,-17 -92,-32 5.3,2 10.5,3 16,3.5 1,0 14.3,1 16.2,-3 0.5,-0.3 1,-1.4 0.6,-3 -1,-2 -2,-4 -4,-5.3 l -54,-55 c -9,-9 -22,-18.2 -32,-11.6 -9,-16.5 -18.5,-34 -17,-52.7 0,-5.6 2,-11 0,-16.5 -1.3,-4 -4,-7 -6,-11 -6,-12 -2,-26 -2,-39 0,-13 -9,-29 -22,-27 -9,1 -14,11 -16,20 -2,9 -1,18.4 -5,27 -4.4,-2.6 -7,-7.7 -9,-12.5 -3.3,-7.6 -5.4,-11 -9,-12 -5,-1.5 -10.4,3.4 -12,5 -1,1 -1.4,2 -2,3.5 -13,-45 -17,-94 -9,-143 -8,61 1,109 3,109 0.5,0 0.4,-4 4,-11 1,-3 3,-6 6.5,-9.4 6.7,5 11,13 11,22 0,3.5 -0.4,8 3,9.5 3,1 6,-2 7,-4.7 1,-3 0.7,-6 1.6,-9 2,-7 8,-11 13,-15 12,-11 16,-28 19,-44.8 l 14.7,-76 c 1.7,-8 3,-17 3,-25 0,-11 -3.3,-22 -7,-33 -2,-8 -5,-16 -11,-21 -6,-5 -16,-6 -21,0.4 -3,4 -6,10 -10,8 -1,-2 -2,-4 -4,-4"
         id="path6"
         style="fill:#335aa3;fill-opacity:1" />
    </g>
    <g
       fill="#f5f5f5"
       stroke="#335aa3"
       stroke-linecap="round"
       stroke-linejoin="round"
       stroke-width="10"
       id="g14"
       style="stroke:#335aa3;stroke-opacity:1"
       transform="matrix(0.21239678,0,0,-0.21239678,-32.374033,214.59522)">
      <path
         d="m 461.5,632.7 -6,-31 -26.8,-10.8 -26,17 -25,-25 18,-26 -11,-27 -30.8,-6 v -35 l 30,-5 11,-27 -18,-26 25,-25 26,18 27,-11 6,-31 h 35 l 5,31 27,10 26,-18 25,25 -18,26 11,27 31,5 v 35 l -31,6 -11,27 18,26 -25,24 -26,-18 -27,11 -5,31 z m 17,-79.7 c 25,0 44.8,-20 44.8,-45 0,-24.8 -20,-44.7 -44.8,-44.7 -25,0 -45,20 -45,44.8 0,25 20,45 45,45 z"
         id="path10"
         style="stroke:#335aa3;stroke-opacity:1" />
      <path
         d="m 588,543 -8,-43.8 -38.7,-16 -38,25 -34.8,-35 25,-37.8 -16,-39 -44,-8 v -49.7 l 44,-8 16,-38.8 -25,-38 35,-35 37.8,25 38.8,-16 8,-44 h 50 l 8,44 39,16 38,-25 35,35 -25,38 16,38 44,8 v 50 l -44,8 -16,39 25,38 -35,35 -38,-25 -39,16 -8,44 z m 25,-119.6 c 33,0 59.8,-27 59.8,-59.8 0,-33 -27,-59.8 -59.8,-59.8 -33,0 -59.8,27 -59.8,59.8 0,33 27,59.8 59.8,59.8 z"
         id="path12"
         style="stroke:#335aa3;stroke-opacity:1" />
    </g>
  </g>
</svg>
